<?xml version="1.0" encoding="utf-8"?>
<!-- Generator: Adobe Illustrator 23.0.2, SVG Export Plug-In . SVG Version: 6.00 Build 0)  -->
<svg version="1.1" id="outline" xmlns="http://www.w3.org/2000/svg" xmlns:xlink="http://www.w3.org/1999/xlink" x="0px" y="0px"
	 viewBox="0 0 340 340" style="enable-background:new 0 0 340 340;" xml:space="preserve">
<style type="text/css">
	.st0{fill:url(#SVGID_1_);}
	.st1{fill:url(#SVGID_2_);}
	.st2{fill:url(#SVGID_3_);}
</style>
<g>
	<linearGradient id="SVGID_1_" gradientUnits="userSpaceOnUse" x1="195.4328" y1="330.7912" x2="183.1927" y2="5.3512">
		<stop  offset="0" style="stop-color:#E1AE02"/>
		<stop  offset="1" style="stop-color:#FDFC5F"/>
	</linearGradient>
	<path class="st0" d="M198.5,202.3c5.3,0.9,10.4-2.6,11.4-8c0.1-0.6,0.1-1.1,0.1-1.7c0.2-10.4-5.3-20.1-14.4-25.3
		c7.3-5.2,13.6-11.5,18.7-18.8c0.9-0.2,1.8-0.4,2.7-0.7c10.2-3.4,18.3-12.8,24-27.8c0.6-1.6,1.1-3.3,1.6-5c4.8-5.5,11.3-15.8,17-34
		c1.5-4.7,3.3-9.3,5.4-13.7c2.5,0.8,5.1,1.3,7.8,1.3c0.4,0,0.8,0,1.2,0c2.2-0.1,3.9-2,3.8-4.2c-0.1-2.2-2-3.9-4.2-3.8
		c-1.5,0.1-3.1-0.1-4.6-0.5c0.7-1.2,1.5-2.4,2.3-3.6c0.8-1.1,1.6-2.2,2.4-3.4l10,15.7c0.6,1,1.7,1.7,2.9,1.8c0.2,0,0.3,0,0.5,0
		c1,0,2-0.4,2.7-1.1c18.7-17.4,10.6-40.7,9.4-43.8c-0.6-2.6-4.8-15.6-23.6-20.5c-3-0.8-6-1.3-9-1.5c-0.1,0-0.1,0-0.2,0
		c-7.8-0.5-15.5,0.9-22.7,3.9C231.4,13,220.8,22,213.5,33.4c-2.9,4.4-6.6,8.3-10.9,11.3l-21.4,14.8c-26,1.7-65.4,14.7-107.8,65.8
		c-2.7,3.2-3.5,7.6-2.3,11.6c1.2,3.9,4.4,7,8.4,8c7,1.9,16.1,0.6,27.2-3.9c3.9,3.7,13.3,9,32.1,3.4c3.5,3.2,11.8,7.2,29.1,1.3
		c2.1,1.8,5.8,3.6,11.8,3.6c5.4-0.2,10.7-1.2,15.7-3.2c2.7,1.3,5.5,2.2,8.5,2.6c-5.1,6.3-11.4,11.6-18.5,15.5
		c-0.1,0.1-0.3,0.1-0.4,0.2c-9.2,4.8-19.6,6.5-29.8,4.9c-2.2-0.3-4.2,1.2-4.5,3.4s1.2,4.2,3.4,4.5c1.4,0.2,2.9,0.4,4.5,0.5
		c-3.6,6.1-5.9,15.1-1.7,27.2c1.1,3.1,4,5.2,7.3,5.1l0,0c6.3-0.6,7.8-7.2,7.8-7.2c0.8-7.2,4.3-10.9,10.4-10.9c0.2,0,0.3,0,0.5,0
		c3.2-0.2,6.2,1.4,7.9,4.1C193.7,200.7,198.5,202.3,198.5,202.3z M293.2,33.4c1.3,6.2,2.1,17.2-5.5,26.8L279,46.6
		C283.2,41.6,288,37.2,293.2,33.4z M290.7,25.4c-2.2,1.5-4.3,3-6.3,4.7c-1-5.6-3.1-10.9-6.3-15.6C285.8,17.6,289.3,22.5,290.7,25.4
		L290.7,25.4z M106.1,132.6c-13.1,5.7-20.5,5.6-24.5,4.5c-1.4-0.4-2.4-1.4-2.9-2.7c-0.5-1.4-0.2-2.9,0.8-4.1
		c41.3-49.7,79-61.7,103.4-63c1.1-0.1,2.1-0.5,2.8-1.3l21.4-14.8c5.2-3.6,9.7-8.2,13.1-13.5c5.3-8.3,12.7-15.2,21.3-20
		c-3.3,8.1-3.8,17.2-1.4,25.6c1.4,5.7,4.6,10.9,9.1,14.7c1.7,1.4,4.2,1.1,5.6-0.6c1.4-1.7,1.1-4.2-0.6-5.6
		c-3.2-2.8-5.5-6.5-6.4-10.6c-3.2-12.1,0.5-21,5-28.2c3.9-1,7.9-1.5,11.9-1.3c7.6,6.1,12.1,15.3,12.3,25.1
		c-4.5,4.7-8.7,9.8-12.4,15.2c-1.8,2.7-3.5,5.4-5,8.2c0,0.1-0.1,0.1-0.1,0.2v0.1c-3.1,5.8-5.6,11.8-7.6,18.1
		c-2.1,7-4.8,13.7-8.2,20.2c-0.8-7.2-3.4-14-7.6-19.8c-1.5-2-3.1-3.9-4.9-5.6c-7.1-7-16.9-10.6-26.9-9.9c-0.4,0-0.9,0.1-1.3,0.1
		c-2.2,0.3-3.7,2.3-3.5,4.5c0.3,2.2,2.2,3.7,4.4,3.5c0.3,0,0.7-0.1,1-0.1c7.7-0.5,15.2,2.3,20.6,7.7c1.4,1.4,2.8,2.9,4,4.5
		c6.8,9.4,8.3,21.8,3.9,33.3c-4.9,12.7-11.3,20.5-19,23.1c-3.1,1-6.5,1.2-9.7,0.6c4.1-3.2,8.6-8.2,10.1-14.9c3.2-1.4,6-3.3,8.5-5.8
		c1.6-1.5,1.6-4.1,0.1-5.7s-4.1-1.6-5.7-0.1c0,0,0,0-0.1,0.1c-6.5,6.5-13.4,5.9-18.2,4.1c5.6-3.3,11-8.7,15.4-17.3
		c1-2,0.2-4.4-1.7-5.4c-2-1-4.4-0.2-5.4,1.7l0,0c-8.7,17-22,18.6-30.7,17.3c5.6-4,10.9-9.9,15.5-18.8c1-2,0.3-4.4-1.7-5.4
		s-4.4-0.3-5.4,1.7l0,0c-11.2,21.8-27.7,22.8-37.8,20.9c5.6-3.6,11.1-9,15.9-17c1.1-1.9,0.5-4.4-1.4-5.5s-4.3-0.5-5.5,1.3
		c-6.5,10.7-14.1,15.8-21,18.1l0,0c-2.2,0.7-4.4,1.2-6.6,1.5c-0.3,0-0.6,0-0.9,0.1c-4.4,0.4-8.8-0.1-13-1.5
		c-2.1-0.8-4.4,0.3-5.2,2.3c-0.8,2.1,0.2,4.3,2.3,5.1c3.1,1,6.3,1.7,9.5,1.9C117,125.6,109.4,130.7,106.1,132.6z M167.7,137.2
		c-10.9,4.1-17.1,3.8-20.5,2.7c2.5-2,4.5-4.6,5.8-7.6c0.8-2.1-0.2-4.4-2.2-5.2c-2-0.8-4.4,0.2-5.2,2.2c-1.4,3.4-5.3,5.9-6.9,6.7
		c-13.5,4.5-20.7,2.8-24.3,0.8c5.2-3.5,13.3-9.8,17.3-17.4c1.7-0.2,3.3-0.6,4.9-1c5.7,2.3,11.9,3.5,18,3.6c4,0,7.9-0.6,11.7-1.7
		c4.9,1.8,10,2.8,15.3,2.9C178.9,129.4,173.9,134.4,167.7,137.2L167.7,137.2z M194.3,138.1c-8.7,3.3-14,3.6-17.3,3
		c6.3-4.5,11-11,13.2-18.4c4.6,3.1,10.1,4.9,15.7,5C202.6,134,195.2,137.6,194.3,138.1L194.3,138.1z M182.3,183.9
		c-10,0.1-16.7,6.5-18.1,17.4c-3.7-11.8,0.2-19.4,4.7-23.8c6.4-0.7,12.7-2.5,18.5-5.3c12.7,5,14.7,14.8,14.7,20.4
		c0,0.6-0.3,1.2-0.9,1.5c-0.4,0.3-0.9,0.4-1.4,0.2c-0.6-0.1-1-0.5-1.3-1C195.5,187.2,189.1,183.5,182.3,183.9L182.3,183.9z"/>
	<linearGradient id="SVGID_2_" gradientUnits="userSpaceOnUse" x1="85.2313" y1="334.9359" x2="72.9913" y2="9.4959">
		<stop  offset="0" style="stop-color:#E1AE02"/>
		<stop  offset="1" style="stop-color:#FDFC5F"/>
	</linearGradient>
	<path class="st1" d="M123.2,193.2c5.2-6.2,10-11.6,14.1-16.1c2.6-1.1,5-2.5,7.2-4.2l0.1-0.1l0.1-0.1c4.2-4,7.6-8.6,10.2-13.8
		c1-2,0.2-4.4-1.8-5.4s-4.4-0.2-5.4,1.8c-2.1,4.2-4.9,8-8.3,11.3c-5.3,4.1-12.1,5.6-18.6,4.3c3.6-3.2,6.1-7.5,7.3-12.1
		c0.5-2.1-0.8-4.3-2.9-4.8s-4.3,0.8-4.8,2.9c-1.4,5.2-5,9.4-9.9,11.5c-12.1,4.1-19.7,2.8-24,0.9c5.2-2.9,9.5-7.3,12.1-12.6
		c0.9-2,0.1-4.4-1.9-5.3c-2-0.9-4.3-0.1-5.3,1.9c-3.8,7.8-12.4,11-13.7,11.4c-5.6,1.2-11.4,1.5-17.1,0.9c-1.1-0.2-2.1-0.9-2.5-2
		c-0.5-1.1-0.3-2.4,0.5-3.3c2.7-3.3,5.7-6.7,9-10.2c1.5-1.6,1.4-4.1-0.2-5.7c-1.6-1.5-4.1-1.4-5.7,0.2c-3.4,3.6-6.5,7.2-9.3,10.6
		c-2.6,3.2-3.3,7.5-1.8,11.3c0.3,0.8,0.7,1.5,1.1,2.2c-2.7,1.7-5.6,3.1-8.6,4.2c-2.9,1-5.8,1.9-8.7,2.7c-3.7,0.9-6.8,3.5-8.3,7
		c-0.9,2-1.2,4.2-0.9,6.4c-1.8,0.2-3.9,0.4-6.1,0.5C13,189.6,8.2,194.8,8.5,201c0.2,4.4,2.9,8.2,6.9,9.9c4.3,1.6,8.9,2.4,13.5,2.4
		c7-0.1,14-1.2,20.7-3.3c2.4-0.7,4.9-1.4,7.3-2.1C23,258.5,10.1,314.1,8.6,320.6c-0.1,0.3-0.1,0.6-0.2,0.9c-0.2,1.1-0.3,2.1-0.3,3.1
		c-0.3,5.3,3.3,10.1,8.5,11.3c0.9,0.2,1.9,0.4,2.9,0.4c4.3,0,8.2-2.5,10-6.4l5.4-11.4c1.4-2.9,3.3-5.4,5.6-7.6
		c7.3-6.9,14-14.4,20.1-22.4c3.1-4.1,5.8-8.5,8-13.2c12.6-27,30.8-52.8,46.8-72.7L123.2,193.2z M111.6,176.5c4.1,1.7,8.5,2.7,13,2.9
		c-18.6,21.2-46,55.7-63.2,92.6c-1.9,4.1-4.3,8.1-7.1,11.7c-4.1,5.4-8.5,10.6-13.2,15.5c10.2-28.6,23.8-55.9,40.5-81.3
		c1.2-1.8,0.8-4.3-1.1-5.6c-1.8-1.2-4.3-0.8-5.6,1.1c0,0,0,0.1-0.1,0.1c-32.8,49.6-46.1,97.1-47.4,102l-5.3,11
		c-0.6,1.4-2.2,2.2-3.8,1.7c-1.5-0.3-2.5-1.7-2.4-3.2c0-0.7,0.1-1.5,0.2-2.4c0-0.1,0-0.2,0-0.3c0.6-2.7,14.9-66.1,53.1-118.6
		c13.1-4.4,26.5-9.6,39.8-15.4c2-0.9,3-3.2,2.1-5.2s-3.2-3-5.2-2.1c0,0,0,0-0.1,0c-19,8.4-38.6,15.5-58.6,21.2
		c-12.6,3.5-22.3,3.9-29.1,1.2c-1.6-0.7-2.4-2.5-1.7-4.1c0.5-1.1,1.5-1.9,2.8-1.9c4-0.2,8-0.6,12-1.2c1.7-0.2,23.1-3.1,37.8-9.8
		c2-0.9,2.9-3.3,1.9-5.3c-0.9-2-3.3-2.8-5.2-2c-10.9,5-26.4,7.7-32.7,8.7c-0.1-0.7,0-1.5,0.3-2.2c0.5-1.2,1.6-2.1,2.9-2.4
		c3.2-0.8,6.4-1.8,9.5-2.9c4.7-1.7,9.1-4,13.1-7c0.2,0,0.4,0.1,0.6,0.1c5.9,0.7,11.9,0.5,17.8-0.6
		C81.3,176.3,91.8,182.8,111.6,176.5L111.6,176.5z"/>
	<linearGradient id="SVGID_3_" gradientUnits="userSpaceOnUse" x1="273.9868" y1="327.8367" x2="261.7468" y2="2.3967">
		<stop  offset="0" style="stop-color:#E1AE02"/>
		<stop  offset="1" style="stop-color:#FDFC5F"/>
	</linearGradient>
	<circle class="st2" cx="262.8" cy="30.4" r="4"/>
</g>
</svg>
